# xmcd
#
# Track frame offsets: 
#        150
#        18775
#        35649
#        54345
#        73149
#        90752
#        111317
#        125585
#        141342
#        157207
#        175694
#        193945
#        215108
#        231994
#        250365
#        265295
#        283905
#        306680
#        325365
#        343912
#
# Disc length: 4795 seconds
#
# Revision: 1
# Processed by: cddbd v1.5.2PL0 Copyright (c) Steve Scherf et al.
# Submitted via: ExactAudioCopy v1.0b3
#
DISCID=4612b914
DTITLE=Various Artist - Русский Хит Парад 90-х ч.2
DYEAR=1900
DGENRE=Pop
TTITLE0=Руки Вверх! - Крошка Моя
TTITLE1=Лада Дэнс - Один Лишь Раз
TTITLE2=Кай Метов - Position №2
TTITLE3=Дискотека Авария - Труба Зовёт
TTITLE4=Губин Андрей - Зима-Холода
TTITLE5=Mr.Credo - Воздушный Шар
TTITLE6=Апина Алёна - Ксюша
TTITLE7=Восток - Миражи
TTITLE8=Адреналин - Ковыляй Потихонечку
TTITLE9=Неигрушки - 100 Дней До Приказа
TTITLE10=Комиссар - Снежная Кролева
TTITLE11=Варум Анжелика - Зимняя Вишня
TTITLE12=Валерия - Обычные Дела
TTITLE13=Агата Кристи - Как На Войне
TTITLE14=Чайф - Аргентина-Ямайка 5-0
TTITLE15=Белый Орёл - Как Упоительны В России Вечера
TTITLE16=Гости Из Будущего - Беги От Меня
TTITLE17=Иванушки International - Тучи
TTITLE18=Овсиенко Татьяна - Дальнобойщик
TTITLE19=Владимирская Светлана - Мальчик мой
EXTD=
EXTT0=
EXTT1=
EXTT2=
EXTT3=
EXTT4=
EXTT5=
EXTT6=
EXTT7=
EXTT8=
EXTT9=
EXTT10=
EXTT11=
EXTT12=
EXTT13=
EXTT14=
EXTT15=
EXTT16=
EXTT17=
EXTT18=
EXTT19=
PLAYORDER=
